<?xml version="1.0" encoding="UTF-8"?>
<svg xmlns="http://www.w3.org/2000/svg" xmlns:xlink="http://www.w3.org/1999/xlink" width="144px" height="144px" viewBox="0 0 144 144" version="1.1">
<g id="surface1">
<path style=" stroke:none;fill-rule:nonzero;fill:rgb(30.980392%,27.45098%,89.803922%);fill-opacity:1;" d="M 72 23.398438 C 53.617188 23.398438 42.128906 34.199219 37.53125 55.800781 C 44.425781 45 52.46875 40.949219 61.660156 43.648438 C 66.902344 45.191406 70.652344 49.660156 74.800781 54.609375 C 81.558594 62.671875 89.382812 72 106.46875 72 C 124.851562 72 136.339844 61.199219 140.9375 39.601562 C 134.042969 50.398438 126 54.449219 116.808594 51.75 C 111.5625 50.210938 107.816406 45.738281 103.667969 40.789062 C 96.90625 32.730469 89.085938 23.398438 72 23.398438 Z M 37.53125 72 C 19.148438 72 7.660156 82.800781 3.0625 104.398438 C 9.957031 93.601562 18 89.550781 27.191406 92.25 C 32.4375 93.789062 36.183594 98.261719 40.332031 103.210938 C 47.089844 111.269531 54.914062 120.601562 72 120.601562 C 90.382812 120.601562 101.871094 109.800781 106.46875 88.199219 C 99.574219 99 91.53125 103.050781 82.339844 100.351562 C 77.097656 98.808594 73.347656 94.339844 69.199219 89.390625 C 62.441406 81.328125 54.617188 72 37.53125 72 Z M 37.53125 72 "/>
</g>
</svg>
