<?xml version="1.0" encoding="UTF-8"?>
<svg xmlns="http://www.w3.org/2000/svg" xmlns:xlink="http://www.w3.org/1999/xlink" width="72px" height="72px" viewBox="0 0 72 72" version="1.1">
<g id="surface1">
<path style=" stroke:none;fill-rule:nonzero;fill:rgb(30.980392%,27.45098%,89.803922%);fill-opacity:1;" d="M 36 11.699219 C 26.808594 11.699219 21.0625 17.101562 18.765625 27.898438 C 22.210938 22.5 26.234375 20.476562 30.828125 21.824219 C 33.453125 22.59375 35.324219 24.832031 37.402344 27.304688 C 40.78125 31.335938 44.691406 36 53.234375 36 C 62.425781 36 68.171875 30.601562 70.46875 19.800781 C 67.019531 25.199219 63 27.226562 58.402344 25.875 C 55.78125 25.105469 53.90625 22.871094 51.832031 20.394531 C 48.453125 16.363281 44.542969 11.699219 36 11.699219 Z M 18.765625 36 C 9.574219 36 3.828125 41.398438 1.53125 52.199219 C 4.980469 46.800781 9 44.773438 13.597656 46.125 C 16.21875 46.894531 18.09375 49.128906 20.167969 51.605469 C 23.546875 55.636719 27.457031 60.300781 36 60.300781 C 45.191406 60.300781 50.9375 54.898438 53.234375 44.101562 C 49.789062 49.5 45.765625 51.523438 41.171875 50.175781 C 38.546875 49.40625 36.675781 47.167969 34.597656 44.695312 C 31.21875 40.664062 27.308594 36 18.765625 36 Z M 18.765625 36 "/>
</g>
</svg>
