<?xml version="1.0" encoding="UTF-8"?>
<svg xmlns="http://www.w3.org/2000/svg" xmlns:xlink="http://www.w3.org/1999/xlink" width="168px" height="168px" viewBox="0 0 168 168" version="1.1">
<g id="surface1">
<path style=" stroke:none;fill-rule:nonzero;fill:rgb(30.980392%,27.45098%,89.803922%);fill-opacity:1;" d="M 84 27.300781 C 62.554688 27.300781 49.148438 39.898438 43.789062 65.101562 C 51.828125 52.5 61.210938 47.773438 71.9375 50.925781 C 78.054688 52.722656 82.425781 57.9375 87.269531 63.710938 C 95.152344 73.117188 104.28125 84 124.210938 84 C 145.660156 84 159.0625 71.398438 164.425781 46.199219 C 156.382812 58.800781 147 63.523438 136.277344 60.375 C 130.15625 58.578125 125.785156 53.363281 120.945312 47.589844 C 113.058594 38.183594 103.933594 27.300781 84 27.300781 Z M 43.789062 84 C 22.339844 84 8.9375 96.601562 3.574219 121.800781 C 11.617188 109.199219 21 104.476562 31.722656 107.625 C 37.84375 109.421875 42.214844 114.636719 47.054688 120.410156 C 54.941406 129.816406 64.066406 140.699219 84 140.699219 C 105.445312 140.699219 118.851562 128.101562 124.210938 102.898438 C 116.171875 115.5 106.789062 120.226562 96.0625 117.074219 C 89.945312 115.277344 85.574219 110.0625 80.730469 104.289062 C 72.847656 94.882812 63.71875 84 43.789062 84 Z M 43.789062 84 "/>
</g>
</svg>
