<?xml version="1.0" encoding="UTF-8"?>
<svg xmlns="http://www.w3.org/2000/svg" xmlns:xlink="http://www.w3.org/1999/xlink" width="48px" height="48px" viewBox="0 0 48 48" version="1.1">
<g id="surface1">
<path style=" stroke:none;fill-rule:nonzero;fill:rgb(30.980392%,27.45098%,89.803922%);fill-opacity:1;" d="M 24 7.800781 C 17.871094 7.800781 14.042969 11.398438 12.511719 18.601562 C 14.808594 15 17.488281 13.648438 20.554688 14.550781 C 22.300781 15.0625 23.550781 16.554688 24.933594 18.203125 C 27.1875 20.890625 29.792969 24 35.488281 24 C 41.617188 24 45.445312 20.398438 46.980469 13.199219 C 44.679688 16.800781 42 18.148438 38.9375 17.25 C 37.1875 16.738281 35.9375 15.246094 34.554688 13.597656 C 32.300781 10.910156 29.695312 7.800781 24 7.800781 Z M 12.511719 24 C 6.382812 24 2.554688 27.601562 1.019531 34.800781 C 3.320312 31.199219 6 29.851562 9.0625 30.75 C 10.8125 31.261719 12.0625 32.753906 13.445312 34.402344 C 15.695312 37.089844 18.304688 40.199219 24 40.199219 C 30.128906 40.199219 33.957031 36.601562 35.488281 29.398438 C 33.191406 33 30.511719 34.351562 27.445312 33.449219 C 25.699219 32.9375 24.449219 31.445312 23.066406 29.796875 C 20.8125 27.109375 18.207031 24 12.511719 24 Z M 12.511719 24 "/>
</g>
</svg>
