<?xml version="1.0" encoding="UTF-8"?>
<svg xmlns="http://www.w3.org/2000/svg" xmlns:xlink="http://www.w3.org/1999/xlink" width="192px" height="192px" viewBox="0 0 192 192" version="1.1">
<g id="surface1">
<path style=" stroke:none;fill-rule:nonzero;fill:rgb(30.980392%,27.45098%,89.803922%);fill-opacity:1;" d="M 96 31.199219 C 71.488281 31.199219 56.171875 45.601562 50.042969 74.398438 C 59.234375 60 69.957031 54.601562 82.210938 58.199219 C 89.207031 60.253906 94.203125 66.214844 99.734375 72.8125 C 108.746094 83.558594 119.175781 96 141.957031 96 C 166.46875 96 181.789062 81.601562 187.914062 52.800781 C 178.722656 67.199219 168 72.601562 155.746094 69 C 148.753906 66.945312 143.753906 60.984375 138.222656 54.386719 C 129.210938 43.640625 118.78125 31.199219 96 31.199219 Z M 50.042969 96 C 25.53125 96 10.210938 110.398438 4.085938 139.199219 C 13.277344 124.800781 24 119.398438 36.253906 123 C 43.246094 125.054688 48.246094 131.015625 53.777344 137.613281 C 62.789062 148.359375 73.21875 160.800781 96 160.800781 C 120.511719 160.800781 135.828125 146.398438 141.957031 117.601562 C 132.765625 132 122.042969 137.398438 109.789062 133.800781 C 102.792969 131.746094 97.796875 125.785156 92.265625 119.1875 C 83.253906 108.441406 72.824219 96 50.042969 96 Z M 50.042969 96 "/>
</g>
</svg>
