<?xml version="1.0" encoding="UTF-8"?>
<svg xmlns="http://www.w3.org/2000/svg" xmlns:xlink="http://www.w3.org/1999/xlink" width="96px" height="96px" viewBox="0 0 96 96" version="1.1">
<g id="surface1">
<path style=" stroke:none;fill-rule:nonzero;fill:rgb(30.980392%,27.45098%,89.803922%);fill-opacity:1;" d="M 48 15.601562 C 35.746094 15.601562 28.085938 22.800781 25.019531 37.199219 C 29.617188 30 34.980469 27.300781 41.105469 29.101562 C 44.601562 30.128906 47.101562 33.105469 49.867188 36.40625 C 54.375 41.78125 59.589844 48 70.980469 48 C 83.234375 48 90.894531 40.800781 93.957031 26.398438 C 89.363281 33.601562 84 36.300781 77.871094 34.5 C 74.375 33.472656 71.878906 30.492188 69.109375 27.195312 C 64.605469 21.820312 59.390625 15.601562 48 15.601562 Z M 25.019531 48 C 12.765625 48 5.105469 55.199219 2.042969 69.601562 C 6.636719 62.398438 12 59.699219 18.128906 61.5 C 21.625 62.527344 24.121094 65.507812 26.886719 68.804688 C 31.394531 74.179688 36.609375 80.398438 48 80.398438 C 60.253906 80.398438 67.914062 73.199219 70.980469 58.800781 C 66.382812 66 61.019531 68.699219 54.894531 66.898438 C 51.398438 65.871094 48.898438 62.894531 46.132812 59.59375 C 41.625 54.21875 36.410156 48 25.019531 48 Z M 25.019531 48 "/>
</g>
</svg>
