<?xml version='1.0' encoding='utf-8'?>
<!DOCTYPE svg PUBLIC '-//W3C//DTD SVG 1.1//EN' 'http://www.w3.org/Graphics/SVG/1.1/DTD/svg11.dtd'>
<!-- Uploaded to: SVG Repo, www.svgrepo.com, Generator: SVG Repo Mixer Tools -->
<svg fill="#000000" height="800px" width="800px" version="1.1" xmlns="http://www.w3.org/2000/svg" viewBox="0 0 512 512" xmlns:xlink="http://www.w3.org/1999/xlink" enable-background="new 0 0 512 512">
  <g>
    <g>
      <path d="m228.7,129.4c-54.6,0-98.9,44.3-98.9,98.9s44.3,98.9 98.9,98.9 98.9-44.3 98.9-98.9-44.3-98.9-98.9-98.9zm0,162.7c-35.2,0-63.8-28.6-63.8-63.8s28.6-63.8 63.8-63.8 63.8,28.6 63.8,63.8-28.5,63.8-63.8,63.8z"/>
      <path d="M398.3,11H113.7C57.1,11,11,57.1,11,113.7v284.6C11,454.9,57.1,501,113.7,501h284.6c56.6,0,102.7-46.1,102.7-102.7V113.7    C501,57.1,454.9,11,398.3,11z M460.2,398.3c0,34.1-27.8,61.9-61.9,61.9H113.7c-34.1,0-61.9-27.8-61.9-61.9V113.7    c0-34.1,27.8-61.9,61.9-61.9h284.6c34.1,0,61.9,27.8,61.9,61.9V398.3z"/>
      <path d="m363.8,349.4c6.1-6.3 10.2-11.5 12.4-15.5 2.2-4 3.4-8.3 3.4-12.7 0-8.1-2.8-14.5-8.4-19.2-5.6-4.7-12.1-7-19.5-7-7.4,0-13.5,1.6-18.3,4.8-4.8,3.2-9.2,7.9-13.2,14.1l15.3,9.1c4.8-7.7 9.9-11.5 15.3-11.5 2.9,0 5.4,1 7.2,2.9 1.9,1.9 2.8,4.3 2.8,7.2 0,2.9-1.1,5.8-3.3,8.9-2.2,3.1-5.8,7.2-10.8,12.3l-25.1,25.7v14.2h60.4v-17.2h-33.8l15.6-16.1z"/>
    </g>
  </g>
</svg>